/* XPM */
static char *result[] = {
/* columns rows colors chars-per-pixel */
"32 32 184 2 ",
"   c #622810",
".  c #3E7525",
"X  c #6D5822",
"o  c #46782A",
"O  c #587C31",
"+  c #72652F",
"@  c #7B7230",
"#  c #862F14",
"$  c #A64A1F",
"%  c #B6431E",
"&  c #815A32",
"*  c #985A3D",
"=  c #A65022",
"-  c #B25D3F",
";  c #BC5827",
":  c #896E2D",
">  c #836929",
",  c #8E712C",
"<  c #95772E",
"1  c #8F6F37",
"2  c #9C7C32",
"3  c #9C7C3D",
"4  c #927437",
"5  c #BF602A",
"6  c #A97F3E",
"7  c #C74729",
"8  c #CE5437",
"9  c #D9573C",
"0  c #C27036",
"q  c #D16C36",
"w  c #A37A43",
"e  c #CF4142",
"r  c #D54B41",
"t  c #D64746",
"y  c #DB5742",
"u  c #D7514F",
"i  c #E85C49",
"p  c #DF6C44",
"a  c #DB7744",
"s  c #DD605F",
"d  c #CD7953",
"f  c #D77954",
"g  c #E5794B",
"h  c #E76E58",
"j  c #F27858",
"k  c #DB6264",
"l  c #4E8B2E",
"z  c #588034",
"x  c #4F9330",
"c  c #549D33",
"v  c #639D3F",
"b  c #76893C",
"n  c #57A135",
"m  c #58A235",
"M  c #75A43B",
"N  c #798C40",
"B  c #76A14B",
"V  c #7CA951",
"C  c #7DB256",
"Z  c #9D813F",
"A  c #9F8232",
"S  c #A38334",
"D  c #AC8A36",
"F  c #A3833D",
"G  c #AA8B3E",
"H  c #A98637",
"J  c #B08C37",
"K  c #B38E38",
"L  c #BB8B39",
"P  c #AF9038",
"I  c #B6923A",
"U  c #BA953A",
"Y  c #BD9A3C",
"T  c #C8813D",
"R  c #C29C3D",
"E  c #C5A13E",
"W  c #C9A23F",
"Q  c #818F40",
"!  c #A48641",
"~  c #A58945",
"^  c #AA8C46",
"/  c #B3894E",
"(  c #B49442",
")  c #BC9B42",
"_  c #B4984B",
"`  c #A79759",
"'  c #B99E58",
"]  c #83AD56",
"[  c #87B65F",
"{  c #BEA148",
"}  c #AAA554",
"|  c #BEA356",
" . c #B6B759",
".. c #BA9F61",
"X. c #AD9E73",
"o. c #AB976C",
"O. c #9AB564",
"+. c #BCB961",
"@. c #B3A477",
"#. c #BEB57B",
"$. c #BCA56A",
"%. c #C78C43",
"&. c #DE854D",
"*. c #C09F49",
"=. c #D98653",
"-. c #E2934C",
";. c #C4A244",
":. c #C9A441",
">. c #CCA943",
",. c #C6A54B",
"<. c #C9A549",
"1. c #CCAA4C",
"2. c #D3AD43",
"3. c #D2AF49",
"4. c #D6B145",
"5. c #DEB847",
"6. c #D4B24B",
"7. c #DFB948",
"8. c #C4A452",
"9. c #C2A857",
"0. c #C7AD5D",
"q. c #CCAF53",
"w. c #D6A556",
"e. c #D5B55C",
"r. c #DAB959",
"t. c #D7B658",
"y. c #E3BD49",
"u. c #DC996F",
"i. c #DC917A",
"p. c #E98961",
"a. c #F48E6D",
"s. c #EB9864",
"d. c #EA9B6C",
"f. c #F2916B",
"g. c #F39874",
"h. c #F49777",
"j. c #C9AB6F",
"k. c #C5A969",
"l. c #DCAB6E",
"z. c #C9B66A",
"x. c #D5BA6C",
"c. c #D5B669",
"v. c #C8AF71",
"b. c #CDB372",
"n. c #C8B37B",
"m. c #D2BB7D",
"M. c #D8B575",
"N. c #ECB77F",
"B. c #E7B56B",
"V. c #A9C076",
"C. c #E7C14D",
"Z. c #E8C555",
"A. c #DFC164",
"S. c #D9C27A",
"D. c #EBCA65",
"F. c #E2C469",
"G. c #E5CB7D",
"H. c #E8CB76",
"J. c #AEA794",
"K. c #BABBBD",
"L. c #B1B2B3",
"P. c #CFBB85",
"I. c #D5BC86",
"U. c #DCC484",
"Y. c #DACB8C",
"T. c #D8C88A",
"R. c #DCCD97",
"E. c #E4CA86",
"W. c #E5C48C",
"Q. c #E5CC8A",
"!. c #E8CC89",
"~. c #EED485",
"^. c #ECD288",
"/. c #F0D68A",
"(. c #E1CD92",
"). c #E9D294",
"_. c #E4D39C",
"`. c #F1DA9D",
"'. c #EBDAAC",
"]. c #F1DCA1",
"[. c #F1DEAA",
"{. c #C2C3C5",
"}. c #C5C7C8",
"|. c None",
/* pixels */
"|.|.|.|.|.|.|.|.|.|.|.|.|.|.|.|.|.|.|.|.|.|.|.|.|.|.|.|.|.|.|.|.",
"|.|.|.|.|.|.|.|.|.|.|.|.|.|.|.|.|.|.|.|.|.|.|.|.|.|.|.|.|.|.|.|.",
"|.|.|.|.|.|.|.|.|.|.|.|.|.|.|.|.|.|.|.|.|.|.|.|.|.|.|.|.|.|.|.|.",
"|.|.|.|.|.|.|.; X.|.Y.|.|.|.|.|.  |.|.|.|.|.|.|.|.|.|.|.|.|.|.|.",
"|.|.|.|.|.|.% =.O.[ ] J.|.|.d g q # |.|.|.|.|.|.|.|.|.|.|.|.|.|.",
"|.|.|.|.|.|.r.x.O x n ` i.t s p d.r.|.|.|.|.|.|.|.|.|.|.|.|.|.|.",
"|.|.|.|.|.|.|.S.Q o l e s k k ` z._ |.|.|.|.|.|.|.|.|.|.|.|.|.|.",
"|.|.|.|.|.|.|./ -.} * u r e k & o O 9.S X |.|.|.|.|.|.|.|.|.|.|.",
"|.|.|.|.|.0 &.N.U. .8 i e h i ! c v k.L U U |.|.|.|.|.|.|.|.|.|.",
"|.|.|.|.7 &.g !.V n @ - 6 Z + +.O.k.f 0 S U R :.|.|.|.|.|.|.|.|.",
"|.|.|.|.= 7 N.R.] x o N  .M . } !.W.a $ 2 D U R q.|.|.|.|.|.|.|.",
"|.|.|.|.|.r.c._.V o o c.O.n o b =.8.Y < 2 D I U <.,.|.|.|.|.|.|.",
"|.|.|.|.|.|.> ~ W.v.0.G Y.V.B M.d.u.4 < S J I U <.( |.|.|.|.|.|.",
"|.|.|.|.|.|.6 ^ f.s...A ) ,.U.W.h.a.k.6 D K I U 1.! |.|.|.|.|.|.",
"|.|.|.|.|.2 J k.g.g.$.S Y W :.U.i d.s.G D I U ,.*.3 K |.|.|.|.|.",
"|.|.|.|.|.K K m.h.h.n.D *.2.2.x.9 p.9 >.D I *.>.3 6 K |.|.|.|.|.",
"|.|.|.|.|.K L I.a.g.S.P >.5.7.6.0 %.7 2.K ) <.~ 1 K K |.|.|.|.|.",
"|.|.|.|.|.K U M.p.j T.Y 3.Z.D.B.r.q.{ Y ) ) ^ 1 H U K |.|.|.|.|.",
"|.|.|.|.|.K U l.s i Y.{ e.H.~.~.E.F.r.<.) ! 1 H U U K |.|.|.|.|.",
"|.|.|.|.|.K U w.9 9 B.| x.).`.].`.!.e.;.! 4 F R R U J |.|.|.|.|.",
"|.|.|.|.|.I Y L 8 9 -.9.P._.[.'.E.r.| 3 2 I 2.:.R U J |.|.|.|.|.",
"|.|.|.|.|.|.Y R Y 0 q q.P._.).G.c._ F F 3.7.2.R R U |.|.|.|.|.|.",
"|.|.|.|.|.|.'.S.x.x.b.0.P.Y.b.' G ! k.H.Z.y.2.:.R J |.|.|.|.|.|.",
"|.|.|.|.|.|.m.R._.R.P.v.' ( I _ v.)./.A.>.4.2.:.U |.|.|.|.|.|.|.",
"|.|.|.|.|.|.|.*.>.:.;.{ { k.U.].`.U.Z , S A 2.R |.|.|.|.|.|.|.|.",
"|.|.|.|.|.|.|.|.;.4.7.C.D.H././.G.: , D E Y :.) |.|.|.|.|.|.|.|.",
"|.|.|.|.|.|.|.|.|.|.6.y.C.Z.D.D.q.> : A R U |.|.|.|.|.|.|.|.|.|.",
"|.|.|.|.|.|.|.|.|.|.|.n.7.y.C.C.C.4.>.,.X.|.|.|.|.|.|.|.|.|.|.|.",
"|.|.|.|.|.|.|.|.|.|.}.K.L.J.@.@.@.@.J.L.K.}.|.|.|.|.|.|.|.|.|.|.",
"|.|.|.|.|.|.|.|.|.|.|.|.}.{.K.K.K.K.{.{.|.|.|.|.|.|.|.|.|.|.|.|.",
"|.|.|.|.|.|.|.|.|.|.|.|.|.|.|.|.|.|.|.|.|.|.|.|.|.|.|.|.|.|.|.|.",
"|.|.|.|.|.|.|.|.|.|.|.|.|.|.|.|.|.|.|.|.|.|.|.|.|.|.|.|.|.|.|.|."
};
