/* XPM */
static char *result[] = {
/* columns rows colors chars-per-pixel */
"32 32 180 2 ",
"   c #6E0F1A",
".  c #6F0F1A",
"X  c #7A111D",
"o  c #7E101D",
"O  c #5D2D34",
"+  c #6F2A32",
"@  c #742933",
"#  c #6C3038",
"$  c #76323B",
"%  c #7B353D",
"&  c #82111E",
"*  c #86111F",
"=  c #8C1220",
"-  c #8A1421",
";  c #901321",
":  c #921321",
">  c #941322",
",  c #951322",
"<  c #961322",
"1  c #991423",
"2  c #9A1423",
"3  c #9B1423",
"4  c #9C1424",
"5  c #9E1424",
"6  c #9F1524",
"7  c #A11525",
"8  c #A31525",
"9  c #A51526",
"0  c #A81626",
"q  c #AA1627",
"w  c #AB1627",
"e  c #AD1627",
"r  c #AE1728",
"t  c #B01728",
"y  c #B11728",
"u  c #B31729",
"i  c #B61829",
"p  c #B7182A",
"a  c #B41D2E",
"s  c #B8182A",
"d  c #B9182A",
"f  c #BC182B",
"g  c #BE192B",
"h  c #BF192B",
"j  c #B62535",
"k  c #B72637",
"l  c #B92C3C",
"z  c #A7313E",
"x  c #C0192C",
"c  c #C1192C",
"v  c #C2192C",
"b  c #C4192D",
"n  c #C5192D",
"m  c #C71A2D",
"M  c #C81A2E",
"N  c #C91A2E",
"B  c #CA1A2E",
"V  c #CB1A2E",
"C  c #CC1A2E",
"Z  c #CD1A2F",
"A  c #CE1B2F",
"S  c #CF1B2F",
"D  c #D11B30",
"F  c #D41B30",
"G  c #D61C31",
"H  c #D91C31",
"J  c #DC1C32",
"K  c #E01D33",
"L  c #DF2338",
"P  c #E02B3F",
"I  c #803841",
"U  c #863B44",
"Y  c #8B3D48",
"T  c #B33241",
"R  c #BB3443",
"E  c #BC3B4A",
"W  c #E13447",
"Q  c #E13B4D",
"!  c #91404A",
"~  c #96434E",
"^  c #9C4651",
"/  c #A14A54",
"(  c #A74C58",
")  c #BE4351",
"_  c #BF4A58",
"`  c #AD505C",
"'  c #B3525E",
"]  c #B65460",
"[  c #B75561",
"{  c #B85662",
"}  c #B85763",
"|  c #B95864",
" . c #BA5965",
".. c #BB5A66",
"X. c #BC5B67",
"o. c #BA5C67",
"O. c #BD5C68",
"+. c #BE5D69",
"@. c #BF5E6A",
"#. c #C1525E",
"$. c #E14355",
"%. c #E14B5C",
"&. c #CA5160",
"*. c #C95663",
"=. c #C25965",
"-. c #C05F6B",
";. c #C55F6B",
":. c #CB5C69",
">. c #CF5D6A",
",. c #CE5E6A",
"<. c #D25E6B",
"1. c #D35E6B",
"2. c #D55E6B",
"3. c #D75E6C",
"4. c #D95E6C",
"5. c #DB5F6D",
"6. c #DC5F6D",
"7. c #DE5F6D",
"8. c #E15363",
"9. c #E35C6B",
"0. c #E05F6E",
"q. c #E25F6E",
"w. c #E95D6D",
"e. c #C1606C",
"r. c #C2616D",
"t. c #C3626E",
"y. c #C5636E",
"u. c #C46571",
"i. c #C56E78",
"p. c #CA717B",
"a. c #CE737D",
"s. c #D2747F",
"d. c #D6747F",
"f. c #E4606F",
"g. c #E6606F",
"h. c #E36472",
"j. c #E86573",
"k. c #EA6776",
"l. c #E46C79",
"z. c #EA6A78",
"x. c #EB6D7B",
"c. c #EA6F7D",
"v. c #C87F87",
"b. c #D97580",
"n. c #DD7581",
"m. c #E47380",
"M. c #E07682",
"N. c #E47480",
"B. c #E47683",
"V. c #E77783",
"C. c #E97482",
"Z. c #EC7481",
"A. c #EB7784",
"S. c #EC7784",
"D. c #EC7785",
"F. c #E97A86",
"G. c #ED7A87",
"H. c #E97F8B",
"J. c #ED7E8B",
"K. c #EA8490",
"L. c #EE8490",
"P. c #EF8793",
"I. c #EA8893",
"U. c #EF8995",
"Y. c #E98E98",
"T. c #EA8E98",
"R. c #EB929C",
"E. c #EA959E",
"W. c #EB97A0",
"Q. c #EA98A1",
"!. c #EB9AA3",
"~. c #EB9BA4",
"^. c #E8A3AB",
"/. c #EDA3AB",
"(. c #EEA3AC",
"). c #EFA3AC",
"_. c #F1A4AD",
"`. c #F2A6AF",
"'. c #EDB9BF",
"]. c None",
/* pixels */
"].].].].].].*.t.u.u.u.u.u.u.u.u.u.u.u.u.u.u.u.u.t.&.].].].].].].",
"].].].].].].t.w.G.L.P.U.U.U.U.U.U.U.U.U.U.P.J.k.K t.].].].].].].",
"].].].].].].t.x.; ; ; ; ; ; ; ; ; ; ; ; ; ; ; / S t.].].].].].].",
"].].].].].].t.Z.: p p p p p p p p p p p p p p :.d t.].].].].].].",
"].].].].].].r.S.> d d d d d d d d d d d d d d ,.u r.].].].].].].",
"].].].].].].e.D.< f f y y y y y y y y y y f f >.u e.].].].].].].",
"].].].].].].-.D.1 h h u h h h h h h h h u h h <.u -.].].].].].].",
"].].].].].].@.D.3 c c i c c c c c c c c i c c 1.u @.].].].].].].",
"].].].].].].+.D.4 b b s b b b '.'.b b b s b b 2.u +.].].].].].].",
"].].].].].].O.D.6 m m d m m m m m m m m d m m 3.u O.].].].].].].",
"].].].].].].X.D.7 N N f N N N N N N N N f N N 4.u X.].].].].].].",
"].].].].].]...D.8 C C g C C C C C C C C g C C 5.u ..].].].].].].",
"].].].].].]. .D.9 A A x A A A A A A A A x A A 6.u  .].].].].].].",
"].].].].].].| D.0 D D v D D D D D D D D v D D 7.u | ].].].].].].",
"].].].].].].} D.q F /.n F F F F F F F F n F F 0.u } ].].].].].].",
"].].].].].].{ D.w G (.^.(.G G G G G G G m G G q.u { ].].].].].].",
"].].].].].].[ D.r H ).z T H H H H H H H M H H f.u [ ].].].].].].",
"].].].].].].] D.t J _.V J J J J J J J J V J J g.u ] ].].].].].].",
"].].].].].].' A.a L `.Z L L L L L L L L Z L L j.y ' ].].].].].].",
"].].].].].].` V.j P k Z P P P P P P P P Z P P z.e ` ].].].].].].",
"].].].].].].( B.l W W C W W W W W W W W C W W c.0 ( ].].].].].].",
"].].].].].]./ M.R Q Q V Q Q Q Q Q Q Q Q V Q Q C.8 / ].].].].].].",
"].].].].].].^ n.E $.$.B $.$.$.$.$.$.$.$.B $.$.F.5 ^ ].].].].].].",
"].].].].].].~ b.) %.%.N %.%.%.%.%.%.%.%.N %.%.H.2 ~ ].].].].].].",
"].].].].].].! d._ 8.8.M 8.8.8.8.8.8.8.8.M 8.8.K., ! ].].].].].].",
"].].].].].].Y s.#.9.9.m m m m m m m m m m 9.9.I.; Y ].].].].].].",
"].].].].].].U a.=.h.h.h.h.h.h.h.h.h.h.h.h.h.h.T.= U ].].].].].].",
"].].].].].].I p.;.l.l.l.l.l.l.l.l.l.l.l.l.l.l.R.* I ].].].].].].",
"].].].].].].% i.y.m.N.N.N.N.N.N.N.N.N.N.N.N.m.E.& % ].].].].].].",
"].].].].].].$ o.v.W.Q.!.~.~.~.~.~.~.~.~.!.Q.W.Y.o $ ].].].].].].",
"].].].].].].# - X .                               # ].].].].].].",
"].].].].].].+ O O O O O O O O O O O O O O O O O O @ ].].].].].]."
};
