/* XPM */
static char *result[] = {
/* columns rows colors chars-per-pixel */
"32 32 226 2 ",
"   c #BE191F",
".  c #C3171E",
"X  c #C81C20",
"o  c #DB1E26",
"O  c #DD1E25",
"+  c #E61C23",
"@  c #E01D25",
"#  c #E31C24",
"$  c #E21D24",
"%  c #E91B23",
"&  c #E91C23",
"*  c #C92D2B",
"=  c #D3252D",
"-  c #DD252C",
";  c #D32B2E",
":  c #D92A2E",
">  c #DB373F",
",  c #EC2126",
"<  c #E0282D",
"1  c #E42C2F",
"2  c #ED2A2C",
"3  c #ED2B2C",
"4  c #ED2D2D",
"5  c #ED3130",
"6  c #ED3533",
"7  c #E4373F",
"8  c #EC3F38",
"9  c #CB4036",
"0  c #E6403A",
"q  c #E7403A",
"w  c #EE4139",
"e  c #E8463E",
"r  c #EE453C",
"t  c #EF463C",
"y  c #ED4A3F",
"u  c #E73D42",
"i  c #DA4249",
"p  c #CB5241",
"a  c #D84C53",
"s  c #E84C42",
"d  c #EF4C40",
"f  c #EE4F42",
"g  c #E84C48",
"h  c #E85346",
"j  c #EF5344",
"k  c #ED5546",
"l  c #EF5847",
"z  c #E7514D",
"x  c #E85949",
"c  c #EF5B4A",
"v  c #EB584C",
"b  c #F05E4B",
"n  c #F0604C",
"m  c #E8675C",
"M  c #EB6A5D",
"N  c #F16650",
"B  c #D05B65",
"V  c #DC616B",
"C  c #D28C7A",
"Z  c #D3927F",
"A  c #D2987A",
"S  c #D29A7B",
"D  c #D59879",
"F  c #D99A79",
"G  c #E7867C",
"H  c #DD7D84",
"J  c #E17E82",
"K  c gray63",
"L  c gray66",
"P  c #B2B3B3",
"I  c #B7B7B7",
"U  c gray72",
"Y  c #D88D8F",
"T  c #D39582",
"R  c #D39881",
"E  c #D79B80",
"W  c #DA9F82",
"Q  c #D89E86",
"!  c #E08A8D",
"~  c #F28A89",
"^  c #E99082",
"/  c #E69497",
"(  c #E29E9C",
")  c #D9A085",
"_  c #D9A087",
"`  c #DAA388",
"'  c #D9A588",
"]  c #DAA58A",
"[  c #E2A19B",
"{  c #DFB2AF",
"}  c #D1B1BA",
"|  c #D6B5BD",
" . c #DDBBBD",
".. c #FBC391",
"X. c #FCC390",
"o. c #FCC391",
"O. c #FCC493",
"+. c #FCC593",
"@. c #FAC494",
"#. c #F9C597",
"$. c #FCC695",
"%. c #FCC696",
"&. c #F5C79E",
"*. c #F8C599",
"=. c #FCC798",
"-. c #F6C89F",
";. c #FCC898",
":. c #FCCA9B",
">. c #FCCA9C",
",. c #FCCB9E",
"<. c #FCCC9F",
"1. c #F4C9A2",
"2. c #FDCEA4",
"3. c #FDCFA4",
"4. c #FDD0A7",
"5. c #FDD1A8",
"6. c #FDD1A9",
"7. c #FCD1AA",
"8. c #FDD5B0",
"9. c #FDD6B2",
"0. c #FDD7B5",
"q. c #FDD8B5",
"w. c #FED8B7",
"e. c #FED9B7",
"r. c #FDD9B8",
"t. c #FDDABA",
"y. c #FEDABA",
"u. c #FEDBBB",
"i. c #FEDCBE",
"p. c #FEDDBF",
"a. c #C2BDCB",
"s. c #C9BBC8",
"d. c #D1B9C2",
"f. c #CEC5D1",
"g. c #CAC9D3",
"h. c #CECBD6",
"j. c #C6CAD8",
"k. c #CACEDA",
"l. c #D8C6D0",
"z. c #DCCDD2",
"x. c #CFD0D0",
"c. c #CDD1DD",
"v. c #D7D5DD",
"b. c #D4D5DE",
"n. c #DBD6D8",
"m. c gray85",
"M. c #DBDCDC",
"N. c gainsboro",
"B. c #FEDEC2",
"V. c #FEDFC3",
"C. c #FEE1C8",
"Z. c #D4D7E1",
"A. c #D8D7E0",
"S. c #D9DAE2",
"D. c #D8DAE3",
"F. c #D8DBE4",
"G. c #D9DCE4",
"H. c #D9DCE5",
"J. c #DADCE4",
"K. c #DADDE5",
"L. c #DADCE6",
"P. c #DADDE6",
"I. c #DDDFE5",
"U. c #E2DCE0",
"Y. c #E1E2E2",
"T. c #E3E4E4",
"R. c #E4E4E4",
"E. c #E6E7E7",
"W. c #E1E3E9",
"Q. c #E2E4E9",
"!. c #E5E6E9",
"~. c #E7E8E8",
"^. c #E7E9EC",
"/. c #E7E9ED",
"(. c gray91",
"). c #E9EAEA",
"_. c #EAEAEA",
"`. c gray92",
"'. c #E8EAED",
"]. c #E9EAED",
"[. c #E8E9EE",
"{. c #EBECEC",
"}. c #EBECEE",
"|. c #ECECEC",
" X c #ECEDED",
".X c #EDEEEE",
"XX c #EEEEEE",
"oX c #EEEFEF",
"OX c #EFEFEF",
"+X c #EEEFF0",
"@X c #EFF0F0",
"#X c gray94",
"$X c #F0F1F1",
"%X c #F1F1F1",
"&X c #F0F1F3",
"*X c #F1F2F2",
"=X c #F1F2F3",
"-X c gray95",
";X c #F2F3F3",
":X c #F1F2F4",
">X c #F2F3F5",
",X c #F3F4F4",
"<X c #F2F4F5",
"1X c #F3F4F6",
"2X c #F4F4F4",
"3X c #F4F5F5",
"4X c gray96",
"5X c #F4F5F7",
"6X c #F5F6F6",
"7X c #F6F6F6",
"8X c #F6F6F7",
"9X c #F6F7F7",
"0X c gray97",
"qX c #F7F8F8",
"wX c #F8F8F8",
"eX c #F8F9F9",
"rX c #F9F9F9",
"tX c #F9F9FA",
"yX c #F9FAFA",
"uX c gray98",
"iX c #FAFAFB",
"pX c #FBFBFB",
"aX c gray99",
"sX c #FCFDFD",
"dX c #FDFDFD",
"fX c None",
/* pixels */
"fXfXfXfXfXfXfXfXfXfXfXfXfXfXfXfXfXfXfXfXfXfXfXfXfXfXfXfXfXfXfXfX",
"fXfXfXfXfXfXfXfXfXfXfXfXfXfXfXfXfXfXfXfXfXfXfXfXfXfXfXfXfXfXfXfX",
"fXfXfXfXfXfXfXfXfXfXfXfXfXfXfXfXfXfXfXfXfXfXfXfXfXfXfXfXfXfXfXfX",
"fXfXfXfXfXfXfXfXfXfXfXfXfXfXfXfXfXfXfXfXfXfXfXfXfXfXfXfXfXfXfXfX",
"fXfXfXfXfXfXfXfXfXfXfXfXfXfXfXfXfXfXfXfXfXfXfXfXfXfXfXfXfXfXfXfX",
"fXfXfXfXfXfXfXfXfXfXfXfXfXfXfXfXfXfXfXfXfXfXfXfXfXfXfXfXfXfXfXfX",
"fXfXfXfXfXfXfXfXfX|.#X#XOX#X7XuXuX3X_.fXfXfXfXfXfXfXfXfXfXfXfXfX",
"fXfXfXfXfXfXfXfXOXdXdXdXdXdXtX[./.eXyX|.fXfXfXfXfXfXfXfXfXfXfXfX",
"fXfXfXfXfXfXfXfX7X:Xg.v.b.5XS.{  .G.1XrX_.fXfXfXfXfXfXfXfXfXfXfX",
"fXfXfXfXfXfXfXfX4XtXv g / J.^ N b ( K.<XeX`.fXfXfXfXfXfXfXfXfXfX",
"fXfXfXfXfXfXfXfX%XsX5 u l.[ n l f r ! H.>XqX|.fXfXfXfXfXfXfXfXfX",
"fXfXfXfXfXfXfXfX2XaX7 | G c x S A 0 4 H Z.&XqX@XfXfXfXfXfXfXfXfX",
"fXfXfXfXfXfXfXXXpX1X} M j h ' 8.8.) 1 % V f.Q.0X{.fXfXfXfXfXfXfX",
"fXfXfXfXfXfX(.rX1Xh.m d s ] r.u.u.r._ < $ > s.W.6Xx.fXfXfXfXfXfX",
"fXfXfXfXfXfXOXiXc.Y t e ` t.p.B.B.p.t.Q : o B k.9XR.fXfXfXfXfXfX",
"fXfXfXfXfXfX-X8Xj.z q W 0.i.V.C.C.V.i.0.E ; = a.6X~.fXfXfXfXfXfX",
"fXfXfXfXfXfX|.yXU.~ F 7.w.p.R T Z C p.e.7.D J z.3XN.fXfXfXfXfXfX",
"fXfXfXfXfXfXfX-XrXrX:.5.0.i.p k y 8 i.q.6.>.6X3X@XI fXfXfXfXfXfX",
"fXfXfXfXfXfXfXfX*XeX=.2.8.y.9 w 6 2 y.8.3.;.3XOXP fXfXfXfXfXfXfX",
"fXfXfXfXfXfXfXfX{.wXO.,.5.9.* 3 , & 9.6.,.+.3X~.fXfXfXfXfXfXfXfX",
"fXfXfXfXfXfXfXfX`.qXX.%.<.4.X & + # 4.<.%.X.,XE.fXfXfXfXfXfXfXfX",
"fXfXfXfXfXfXfXfXoX0XX.X.$.:.. # @ O >.$.X.X.,XE.fXfXfXfXfXfXfXfX",
"fXfXfXfXfXfXfXT.3X2X1.*...o.  - i a -.@.#.&.;X XfXfXfXfXfXfXfXfX",
"fXfXfXfXfXfXfXR.6XI.P.L.D.n.d.A.P.P.P.P.P.F.!.oXU fXfXfXfXfXfXfX",
"fXfXfXfXfXfXfXY.;X=X'.^.].}.+X*X*X*X*X*X$X$X*X~.K fXfXfXfXfXfXfX",
"fXfXfXfXfXfXfXfXm.{.XXXX.X.X.X X X X|.{.{.).M.L fXfXfXfXfXfXfXfX",
"fXfXfXfXfXfXfXfXfXfXfXfXfXfXfXfXfXfXfXfXfXfXfXfXfXfXfXfXfXfXfXfX",
"fXfXfXfXfXfXfXfXfXfXfXfXfXfXfXfXfXfXfXfXfXfXfXfXfXfXfXfXfXfXfXfX",
"fXfXfXfXfXfXfXfXfXfXfXfXfXfXfXfXfXfXfXfXfXfXfXfXfXfXfXfXfXfXfXfX",
"fXfXfXfXfXfXfXfXfXfXfXfXfXfXfXfXfXfXfXfXfXfXfXfXfXfXfXfXfXfXfXfX",
"fXfXfXfXfXfXfXfXfXfXfXfXfXfXfXfXfXfXfXfXfXfXfXfXfXfXfXfXfXfXfXfX",
"fXfXfXfXfXfXfXfXfXfXfXfXfXfXfXfXfXfXfXfXfXfXfXfXfXfXfXfXfXfXfXfX"
};
